<?xml version="1.0" encoding="utf-8"?>
<!-- Generator: Adobe Illustrator 24.0.1, SVG Export Plug-In . SVG Version: 6.00 Build 0)  -->
<svg version="1.1" id="Layer_1" xmlns="http://www.w3.org/2000/svg" xmlns:xlink="http://www.w3.org/1999/xlink" x="0px" y="0px"
	 viewBox="0 0 18 18" style="enable-background:new 0 0 18 18;" xml:space="preserve">
<path d="M1.8,3.2l13,13v-3.3c0-3.4-0.3-4.7-1-6.1c-0.6-1.2-1.5-2-2.7-2.7c-1.4-0.7-2.7-1-6.1-1H1.8z M11.8,18H0V1.4h5.1
	c4,0,5.5,0.4,6.9,1.2c1.5,0.8,2.6,1.9,3.4,3.4c0.8,1.5,1.2,2.9,1.2,6.9V18H11.8z M16.3,3.5c-1,0-1.7-0.8-1.7-1.7
	c0-1,0.8-1.7,1.7-1.7c1,0,1.7,0.8,1.7,1.7C18,2.7,17.2,3.5,16.3,3.5z"/>
</svg>
