<svg xmlns="http://www.w3.org/2000/svg" viewBox="0 0 192 192" fill="none" xmlns:v="https://vecta.io/nano"><path fill-rule="evenodd" d="M54.43 140.455c8.051-11.812 24.435-19.899 43.338-19.899s35.287 8.087 43.338 19.899c-8.051 11.812-24.436 19.899-43.338 19.899s-35.286-8.087-43.337-19.899z" fill="url(#A)"/><path d="M54.138 52.688C62.183 41.001 78.557 33 97.447 33s35.264 8.001 43.31 19.688c-8.046 11.687-24.419 19.688-43.31 19.688s-35.264-8.001-43.31-19.687z" fill="url(#B)"/><path d="M98.275 96.91c-11.706 11.589-27.583 18.099-44.137 18.099S21.706 108.499 10 96.91l44.138-44.222L98.275 96.91z" fill="url(#B)"/><path d="M185 96.931c-11.706 11.59-27.583 18.1-44.138 18.1s-32.431-6.51-44.137-18.1l44.137-44.244L185 96.931z" fill="url(#B)"/><defs><linearGradient id="A" x1="97.767" y1="120.556" x2="97.767" y2="160.354" gradientUnits="userSpaceOnUse"><stop stop-color="#6e4fed"/><stop offset=".693" stop-color="#a96fdc"/></linearGradient><linearGradient id="B" x1="97.5" y1="33" x2="97.5" y2="115.031" gradientUnits="userSpaceOnUse"><stop offset=".266" stop-color="#ed9ca2"/><stop offset="1" stop-color="#a96fdc"/></linearGradient></defs></svg>